#!OML:ASF F:\VICON\USERDATA\INSTALL\Justin_Nancy\Justin_Nancy.ASF
:FULLY-SPECIFIED
:DEGREES
231
root 1.1528 16.2965 -16.7479 38.0252 0.385339 0.767969
lowerback 30.5628 -0.436137 1.53432
upperback 3.43828 0.382363 3.15985
thorax -12.2004 0.159659 2.40952
lowerneck -25.2538 -3.69076 -7.78297
upperneck 4.96227 -2.99112 4.20485
head 5.62133 -1.29676 2.24275
rclavicle -7.95139e-015 1.19271e-015
rhumerus -57.2776 0.223565 -73.5265
rradius 78.6172
rwrist -12.9906
rhand -22.1435 19.6637
rfingers 7.12502
rthumb 4.2702 -10.2733
lclavicle -7.95139e-015 1.19271e-015
lhumerus -51.7334 -3.66454 82.1609
lradius 60.6297
lwrist 22.0742
lhand -24.9982 22.2218
lfingers 7.12502
lthumb 1.51334 52.1962
rfemur -71.7566 -1.80088 20.117
rtibia 57.8618
rfoot -18.9333 -8.73318
rtoes 1.17036
lfemur -72.0042 -2.08285 -18.7515
ltibia 56.2527
lfoot -20.1996 2.91309
ltoes -3.57079
232
root 1.15159 16.2221 -16.7259 38.8873 0.00481073 0.669035
lowerback 30.7992 -0.180963 1.19056
upperback 3.50979 0.601642 3.20018
thorax -12.2356 0.272857 2.55701
lowerneck -25.6317 -4.06779 -8.18755
upperneck 4.33643 -3.38103 4.67235
head 5.51063 -1.44853 2.4109
rclavicle 1.59028e-015 -2.90226e-014
rhumerus -58.3341 0.0214797 -73.334
rradius 78.6729
rwrist -13.301
rhand -22.5161 19.383
rfingers 7.12502
rthumb 3.91041 -10.5609
lclavicle 1.59028e-015 -2.90226e-014
lhumerus -52.8965 -4.03796 82.6327
lradius 61.0455
lwrist 23.6504
lhand -24.7651 23.3639
lfingers 7.12502
lthumb 1.73841 53.3365
rfemur -73.2651 -1.37387 19.9127
rtibia 58.8696
rfoot -19.1956 -8.56215
rtoes 1.91966
lfemur -73.5087 -1.77673 -18.8
ltibia 57.4309
lfoot -20.5775 3.07018
ltoes -3.21351
233
root 1.15616 16.1572 -16.6964 39.5957 -0.52693 0.65227
lowerback 31.1393 0.0811658 0.726745
upperback 3.65622 0.774609 3.14764
thorax -12.2294 0.367722 2.68594
lowerneck -26.6438 -3.86979 -7.95963
upperneck 3.94579 -3.05738 4.35259
head 5.48008 -1.29693 2.30756
rclavicle 1.59028e-014 1.15295e-014
rhumerus -59.1869 -0.196126 -73.2297
rradius 78.5509
rwrist -13.5082
rhand -22.9127 19.535
rfingers 7.12502
rthumb 3.5274 -10.4156
lclavicle 1.59028e-014 1.15295e-014
lhumerus -53.9987 -4.55505 83.1413
lradius 61.5566
lwrist 25.403
lhand -25.2645 23.2371
lfingers 7.12502
lthumb 1.25608 53.2132
rfemur -74.5606 -0.983098 19.5935
rtibia 59.8666
rfoot -19.4379 -8.56756
rtoes 1.76523
lfemur -74.7553 -1.5025 -19.0276
ltibia 58.6432
lfoot -21.0802 3.32064
ltoes -2.37211
234
root 1.19907 15.997 -16.7126 41.8579 -1.67401 0.0334952
lowerback 29.8032 0.54123 0.496132
upperback 3.81122 1.22018 2.83123
thorax -12.244 0.60234 2.49573
lowerneck -27.0112 -3.78082 -7.85028
upperneck 3.20723 -2.92549 4.29245
head 5.27836 -1.22449 2.28655
rclavicle -2.38542e-015 -1.11319e-014
rhumerus -60.1105 -0.41601 -73.1526
rradius 78.4636
rwrist -13.7053
rhand -23.1561 20.2087
rfingers 7.12502
rthumb 3.2924 -9.74565
lclavicle -2.38542e-015 -1.11319e-014
lhumerus -55.1777 -4.94418 83.615
lradius 61.9828
lwrist 27.1572
lhand -25.9202 21.7352
lfingers 7.12502
lthumb 0.62278 51.714
rfemur -78.1427 -0.314694 19.6214
rtibia 60.9492
rfoot -19.1998 -8.04533
rtoes 1.40183
lfemur -78.2045 -0.843495 -18.9566
ltibia 60.0524
lfoot -21.0025 4.05973
ltoes -2.14593
235
root 1.209 15.9211 -16.6841 42.5211 -1.71976 -0.322685
lowerback 30.3283 0.613764 0.758265
upperback 3.40437 1.40754 2.90578
thorax -12.181 0.64537 2.1719
lowerneck -26.8247 -3.90337 -7.99947
upperneck 2.16801 -3.07275 4.5995
head 4.93146 -1.26755 2.3968
rclavicle -1.19271e-014 9.93923e-016
rhumerus -61.0444 -0.763527 -73.1005
rradius 78.2054
rwrist -13.9992
rhand -23.1559 21.1859
rfingers 7.12502
rthumb 3.29252 -8.76844
lclavicle -1.19271e-014 9.93923e-016
lhumerus -56.1133 -5.17667 84.0021
lradius 62.2758
lwrist 28.7494
lhand -26.0737 21.167
lfingers 7.12502
lthumb 0.474564 51.1462
rfemur -79.3227 -0.155964 19.9662
rtibia 61.9084
rfoot -19.6051 -8.08508
rtoes 1.92502
lfemur -79.5005 -0.706817 -18.6181
ltibia 61.2658
lfoot -21.3693 4.40762
ltoes -2.65624
236
root 1.19517 15.926 -16.6078 41.8818 -0.902413 -0.0480756
lowerback 31.8391 0.292748 1.17412
upperback 3.61543 1.18598 3.0172
thorax -12.5733 0.524524 2.1454
lowerneck -26.6637 -3.96613 -8.02316
upperneck 1.27665 -3.16471 4.77202
head 4.63065 -1.29484 2.45
rclavicle -1.27222e-014 -1.92821e-014
rhumerus -61.8037 -1.13018 -73.0864
rradius 77.8942
rwrist -14.3235
rhand -23.1844 21.1417
rfingers 7.12502
rthumb 3.26498 -8.81306
lclavicle -1.27222e-014 -1.92821e-014
lhumerus -56.8111 -5.39755 84.4584
lradius 62.5348
lwrist 29.9599
lhand -26.0789 22.5286
lfingers 7.12502
lthumb 0.469569 52.5079
rfemur -78.5063 -0.783824 20.3354
rtibia 62.7252
rfoot -20.3891 -8.66973
rtoes 0.843059
lfemur -78.8665 -1.20054 -18.53
ltibia 62.0853
lfoot -22.0336 4.25842
ltoes -3.01048
237
root 1.21414 15.8147 -16.5749 43.3482 -0.949153 -0.428437
lowerback 30.8855 0.328236 1.504
upperback 3.55184 1.30497 2.95454
thorax -12.2321 0.563965 1.8558
lowerneck -26.7306 -3.90262 -7.76366
upperneck 0.559137 -3.14182 4.72998
head 4.40235 -1.27858 2.40089
rclavicle 9.54166e-015 -2.36554e-014
rhumerus -62.3913 -1.45437 -73.1598
rradius 77.686
rwrist -14.3736
rhand -23.1997 20.7879
rfingers 7.12502
rthumb 3.25023 -9.16712
lclavicle 9.54166e-015 -2.36554e-014
lhumerus -57.2937 -5.44716 84.7795
lradius 62.668
lwrist 30.8388
lhand -26.2297 23.4647
lfingers 7.12502
lthumb 0.323861 53.4442
rfemur -80.7485 -0.833353 21.0172
rtibia 63.7631
rfoot -20.3085 -8.9927
rtoes -1.67604
lfemur -81.1268 -0.981687 -18.2751
ltibia 63.2654
lfoot -22.3339 4.36282
ltoes -2.67388
238
root 1.20591 15.8044 -16.496 42.5519 -0.128238 -0.0794269
lowerback 32.3182 -0.0689912 1.96329
upperback 3.86244 1.00789 3.03587
thorax -12.4678 0.4079 1.80733
lowerneck -26.9722 -3.82678 -7.55763
upperneck -0.0472201 -3.07033 4.65653
head 4.23051 -1.24018 2.35433
rclavicle -1.07344e-014 -2.56432e-014
rhumerus -62.8948 -1.76781 -73.1969
rradius 77.5234
rwrist -14.2338
rhand -23.2396 21.2441
rfingers 7.12502
rthumb 3.21175 -8.71147
lclavicle -1.07344e-014 -2.56432e-014
lhumerus -57.6723 -5.30663 84.9863
lradius 62.8013
lwrist 31.5631
lhand -26.5516 22.3677
lfingers 7.12502
lthumb 0.0129809 52.3474
rfemur -79.9213 -1.60715 21.4053
rtibia 64.7648
rfoot -21.0676 -9.7614
rtoes -3.41584
lfemur -80.3443 -1.63415 -18.1738
ltibia 64.1007
lfoot -23.2576 4.22145
ltoes -2.79737
239
root 1.22783 15.6546 -16.4905 44.4911 -0.477352 -0.404707
lowerback 30.8943 0.144073 1.94258
upperback 3.69091 1.21679 2.99638
thorax -12.0656 0.50598 1.6961
lowerneck -27.2659 -3.8287 -7.64125
upperneck -0.648095 -3.01446 4.69647
head 4.07407 -1.20202 2.38798
rclavicle -1.59028e-015 -1.72943e-014
rhumerus -63.1917 -2.06647 -73.136
rradius 77.285
rwrist -14.2149
rhand -23.3169 21.634
rfingers 7.12502
rthumb 3.13705 -8.32269
lclavicle -1.59028e-015 -1.72943e-014
lhumerus -57.9552 -5.06297 85.2591
lradius 62.8994
lwrist 31.9882
lhand -26.9241 21.0251
lfingers 7.12502
lthumb -0.346793 51.0046
rfemur -83.0193 -1.35991 21.6669
rtibia 66.0445
rfoot -21.0469 -9.6974
rtoes -4.52592
lfemur -83.3705 -1.37724 -18.0038
ltibia 65.3989
lfoot -23.3149 4.62352
ltoes -3.26313
